<svg width="21" height="21" viewBox="0 0 21 21" fill="none" xmlns="http://www.w3.org/2000/svg">
<path fill-rule="evenodd" clip-rule="evenodd" d="M3 5.14286C3 4.57454 3.22576 4.02949 3.62763 3.62763C4.02949 3.22576 4.57454 3 5.14286 3H6.12286C6.73714 3 7.27286 3.41857 7.42214 4.01429L8.21143 7.17357C8.27539 7.42928 8.26247 7.69818 8.17429 7.94659C8.08611 8.19499 7.92659 8.41185 7.71571 8.57L6.79214 9.26286C6.69571 9.335 6.675 9.44071 6.70214 9.51429C7.10527 10.6106 7.74185 11.6062 8.56782 12.4322C9.39378 13.2581 10.3894 13.8947 11.4857 14.2979C11.5593 14.325 11.6643 14.3043 11.7371 14.2079L12.43 13.2843C12.5881 13.0734 12.805 12.9139 13.0534 12.8257C13.3018 12.7375 13.5707 12.7246 13.8264 12.7886L16.9857 13.5779C17.5814 13.7271 18 14.2629 18 14.8779V15.8571C18 16.4255 17.7742 16.9705 17.3724 17.3724C16.9705 17.7742 16.4255 18 15.8571 18H14.25C8.03714 18 3 12.9629 3 6.75V5.14286Z" fill="white"/>
</svg>
