<svg width="19" height="19" viewBox="0 0 19 19" fill="none" xmlns="http://www.w3.org/2000/svg">
<path fill-rule="evenodd" clip-rule="evenodd" d="M14.516 8.99649C14.6494 9.13008 14.7244 9.31118 14.7244 9.49999C14.7244 9.6888 14.6494 9.86989 14.516 10.0035L10.4785 14.041C10.4133 14.111 10.3346 14.1671 10.2472 14.2061C10.1598 14.245 10.0655 14.266 9.9698 14.2677C9.87413 14.2693 9.7791 14.2517 9.69038 14.2159C9.60166 14.1801 9.52107 14.1267 9.45341 14.0591C9.38576 13.9914 9.33242 13.9108 9.29658 13.8221C9.26075 13.7334 9.24315 13.6384 9.24484 13.5427C9.24653 13.447 9.26747 13.3527 9.30641 13.2653C9.34535 13.1779 9.4015 13.0992 9.4715 13.034L13.0055 9.49999L9.4715 5.96599C9.34564 5.83092 9.27713 5.65228 9.28038 5.46769C9.28364 5.28311 9.35842 5.10699 9.48896 4.97645C9.6195 4.84591 9.79562 4.77113 9.9802 4.76787C10.1648 4.76462 10.3434 4.83313 10.4785 4.95899L14.516 8.99649ZM5.7285 4.95899L9.766 8.99649C9.89943 9.13008 9.97437 9.31118 9.97437 9.49999C9.97437 9.6888 9.89943 9.86989 9.766 10.0035L5.7285 14.041C5.59343 14.1668 5.41479 14.2354 5.2302 14.2321C5.04562 14.2288 4.8695 14.1541 4.73896 14.0235C4.60842 13.893 4.53364 13.7169 4.53038 13.5323C4.52713 13.3477 4.59564 13.1691 4.7215 13.034L8.2555 9.49999L4.7215 5.96599C4.59564 5.83092 4.52713 5.65228 4.53038 5.46769C4.53364 5.28311 4.60842 5.10699 4.73896 4.97645C4.8695 4.84591 5.04562 4.77113 5.2302 4.76787C5.41479 4.76462 5.59343 4.83313 5.7285 4.95899Z" fill="white" fill-opacity="0.5"/>
</svg>
