<svg width="21" height="21" viewBox="0 0 21 21" fill="none" xmlns="http://www.w3.org/2000/svg">
<path d="M2 7.87636V14.6364C2 15.2632 2.25587 15.8644 2.71131 16.3077C3.16676 16.751 3.78447 17 4.42857 17H16.5714C17.2155 17 17.8332 16.751 18.2887 16.3077C18.7441 15.8644 19 15.2632 19 14.6364V7.87636L11.7726 12.2042C11.3899 12.4333 10.9493 12.5547 10.5 12.5547C10.0507 12.5547 9.61014 12.4333 9.22743 12.2042L2 7.87636Z" fill="white"/>
<path d="M19 6.48812V6.36364C19 5.73676 18.7441 5.13556 18.2887 4.69229C17.8332 4.24903 17.2155 4 16.5714 4H4.42857C3.78447 4 3.16676 4.24903 2.71131 4.69229C2.25587 5.13556 2 5.73676 2 6.36364V6.48812L9.86371 11.1981C10.0551 11.3126 10.2753 11.3733 10.5 11.3733C10.7247 11.3733 10.9449 11.3126 11.1363 11.1981L19 6.48812Z" fill="white"/>
</svg>
