<svg width="15" height="13" viewBox="0 0 15 13" fill="none" xmlns="http://www.w3.org/2000/svg">
<g clip-path="url(#clip0_0_49)">
<path d="M14.9998 0.161866C14.9655 0.11144 14.9193 0.0703833 14.8651 0.0424358C14.811 0.0144883 14.7507 0.000539597 14.6898 0.00186646H0.360755C0.301528 -0.00360511 0.241935 0.00728195 0.188468 0.0333415C0.135001 0.0594011 0.0897105 0.0996363 0.0575307 0.149659C0.025351 0.199682 0.00751667 0.257577 0.00596939 0.317037C0.00442212 0.376496 0.0192205 0.435238 0.048755 0.486867L2.94876 5.00187L4.84376 4.01887L3.51876 1.96487H11.5048L14.9998 0.161866Z" fill="white"/>
<path d="M0.0477785 0.485891C0.018244 0.434262 0.00344556 0.375518 0.00499283 0.316058C0.00654011 0.256599 0.0243878 0.198704 0.0565675 0.148681C0.0887473 0.0986578 0.134021 0.0584246 0.187488 0.032365C0.240955 0.00630538 0.300563 -0.00458167 0.35979 0.000889901H14.6888C14.7498 -0.000436965 14.81 0.0135098 14.8642 0.0414573C14.9183 0.0694048 14.9646 0.110463 14.9988 0.16089L11.4988 1.96089H3.51281L4.83782 4.01489L2.94683 4.99989L0.0477785 0.485891Z" fill="#A2A2A2"/>
<path d="M14.9509 0C14.9832 0.0542989 15.0003 0.11631 15.0003 0.179497C15.0003 0.242683 14.9832 0.304698 14.9509 0.358997L7.60293 12.819C7.56975 12.8741 7.5229 12.9196 7.46692 12.9513C7.41094 12.9829 7.34773 12.9995 7.28343 12.9995C7.21913 12.9995 7.15592 12.9829 7.09994 12.9513C7.04396 12.9196 6.99711 12.8741 6.96393 12.819L4.00293 7.78L5.94393 6.68L7.29093 8.98L11.3909 2.039L14.9509 0Z" fill="#848484"/>
<path d="M6.96899 12.819L4 7.781L5.94 6.681L7.28802 8.981L11.388 2.039L14.951 0C14.9833 0.0542989 15.0004 0.116314 15.0004 0.179501C15.0004 0.242687 14.9833 0.3047 14.951 0.358999L7.60797 12.819C7.57492 12.8741 7.52819 12.9197 7.47229 12.9513C7.41639 12.983 7.35324 12.9996 7.289 12.9996C7.22476 12.9996 7.16162 12.983 7.10571 12.9513C7.04981 12.9197 7.00204 12.8741 6.96899 12.819Z" fill="white"/>
</g>
<defs>
<clipPath id="clip0_0_49">
<rect width="15" height="13" fill="white"/>
</clipPath>
</defs>
</svg>
