<svg width="32" height="32" viewBox="0 0 32 32" fill="none" xmlns="http://www.w3.org/2000/svg">
<g clip-path="url(#clip0_86_498)">
<mask id="mask0_86_498" style="mask-type:luminance" maskUnits="userSpaceOnUse" x="0" y="0" width="32" height="32">
<path d="M32 0H0V32H32V0Z" fill="white"/>
</mask>
<g mask="url(#mask0_86_498)">
<path d="M11.3 20.4001C11 20.0001 10.7 19.3001 10.1 18.4001C9.79996 17.9001 8.89996 16.9001 8.59996 16.5001C8.5109 16.351 8.45577 16.1841 8.43849 16.0113C8.42121 15.8385 8.44219 15.664 8.49996 15.5001C8.57121 15.1838 8.74936 14.9016 9.00438 14.7012C9.25939 14.5009 9.57569 14.3945 9.89996 14.4001C10.4262 14.4881 10.9138 14.732 11.3 15.1001C11.5 15.3001 11.8 15.7001 12 15.9001C12.2 16.1001 12.2 16.2001 12.4 16.4001C12.6 16.7001 12.7 16.9001 12.6 16.5001C12.5 16.0001 12.4 15.2001 12.2 14.4001C12.1259 14.0269 12.0256 13.6593 11.9 13.3001C11.8 12.8001 11.7 12.5001 11.6 12.0001C11.5 11.7001 11.4 10.9001 11.3 10.5001C11.2229 10.1957 11.2098 9.87853 11.2614 9.56872C11.313 9.25892 11.4283 8.96317 11.6 8.70015C11.7753 8.54686 11.9907 8.44666 12.2209 8.41124C12.4511 8.37582 12.6866 8.40666 12.9 8.50015C13.3293 8.82799 13.6442 9.28291 13.8 9.80015C14.0491 10.4434 14.217 11.1153 14.3 11.8001C14.5 12.8001 14.8 14.3001 14.8 14.6001C14.75 14.1014 14.75 13.5989 14.8 13.1001C14.8412 12.9193 14.9268 12.7514 15.049 12.6118C15.1712 12.4722 15.3261 12.3651 15.5 12.3001C15.7924 12.2177 16.0965 12.1839 16.4 12.2001C16.7 12.3063 16.973 12.477 17.2 12.7001C17.4607 13.2646 17.5972 13.8784 17.6 14.5001C17.6514 13.9588 17.7518 13.4233 17.9 12.9001C18.0893 12.6792 18.3295 12.5076 18.6 12.4001C18.9258 12.2999 19.2742 12.2999 19.6 12.4001C19.8889 12.4707 20.1396 12.6497 20.3 12.9001C20.4915 13.4515 20.6256 14.0212 20.7 14.6001C20.7849 14.3606 20.8851 14.1268 21 13.9001C21.1232 13.7107 21.3051 13.5669 21.5179 13.4907C21.7306 13.4145 21.9625 13.4101 22.178 13.4782C22.3934 13.5462 22.5807 13.683 22.7111 13.8675C22.8415 14.0521 22.9078 14.2743 22.9 14.5001V16.8001C22.8827 17.3715 22.8158 17.9404 22.7 18.5001C22.528 18.9951 22.2928 19.4657 22 19.9001C21.4954 20.4234 21.0889 21.0331 20.8 21.7001C20.7262 22.0282 20.6926 22.364 20.7 22.7001C20.7086 23.0024 20.7421 23.3034 20.8 23.6001C20.4017 23.6535 19.9982 23.6535 19.6 23.6001C19.1454 23.3653 18.7905 22.9749 18.6 22.5001C18.5692 22.4331 18.5199 22.3763 18.4579 22.3365C18.3958 22.2967 18.3237 22.2755 18.25 22.2755C18.1762 22.2755 18.1041 22.2967 18.042 22.3365C17.98 22.3763 17.9307 22.4331 17.9 22.5001C17.7 22.9001 17.2 23.6001 16.8 23.6001C16.1 23.7001 14.7 23.6001 13.7 23.6001C13.7 23.6001 13.9 22.6001 13.5 22.2001L12.4 21.1001L11.3 20.4001Z" fill="white"/>
</g>
<mask id="mask1_86_498" style="mask-type:luminance" maskUnits="userSpaceOnUse" x="0" y="0" width="32" height="32">
<path d="M32 0H0V32H32V0Z" fill="white"/>
</mask>
<g mask="url(#mask1_86_498)">
<path d="M11.3 20.4001C11 20.0001 10.7 19.3001 10.1 18.4001C9.79996 17.9001 8.89996 16.9001 8.59996 16.5001C8.5109 16.351 8.45577 16.1841 8.43849 16.0113C8.42121 15.8385 8.44219 15.664 8.49996 15.5001C8.57121 15.1838 8.74936 14.9016 9.00438 14.7012C9.25939 14.5009 9.57569 14.3945 9.89996 14.4001C10.4262 14.4881 10.9138 14.732 11.3 15.1001C11.5 15.3001 11.8 15.7001 12 15.9001C12.2 16.1001 12.2 16.2001 12.4 16.4001C12.6 16.7001 12.7 16.9001 12.6 16.5001C12.5 16.0001 12.4 15.2001 12.2 14.4001C12.1259 14.0269 12.0256 13.6593 11.9 13.3001C11.8 12.8001 11.7 12.5001 11.6 12.0001C11.5 11.7001 11.4 10.9001 11.3 10.5001C11.2229 10.1957 11.2098 9.87853 11.2614 9.56872C11.313 9.25892 11.4283 8.96317 11.6 8.70015C11.7753 8.54686 11.9907 8.44666 12.2209 8.41124C12.4511 8.37582 12.6866 8.40666 12.9 8.50015C13.3293 8.82799 13.6442 9.28291 13.8 9.80015C14.0491 10.4434 14.217 11.1153 14.3 11.8001C14.5 12.8001 14.8 14.3001 14.8 14.6001C14.75 14.1014 14.75 13.5989 14.8 13.1001C14.8412 12.9193 14.9268 12.7514 15.049 12.6118C15.1712 12.4722 15.3261 12.3651 15.5 12.3001C15.7924 12.2177 16.0965 12.1839 16.4 12.2001C16.7 12.3063 16.973 12.477 17.2 12.7001C17.4607 13.2646 17.5972 13.8784 17.6 14.5001C17.6514 13.9588 17.7518 13.4233 17.9 12.9001C18.0893 12.6792 18.3295 12.5076 18.6 12.4001C18.9258 12.2999 19.2742 12.2999 19.6 12.4001C19.8889 12.4707 20.1396 12.6497 20.3 12.9001C20.4915 13.4515 20.6256 14.0212 20.7 14.6001C20.7849 14.3606 20.8851 14.1268 21 13.9001C21.1232 13.7107 21.3051 13.5669 21.5179 13.4907C21.7306 13.4145 21.9625 13.4101 22.178 13.4782C22.3934 13.5462 22.5807 13.683 22.7111 13.8675C22.8415 14.0521 22.9078 14.2743 22.9 14.5001V16.8001C22.8827 17.3715 22.8158 17.9404 22.7 18.5001C22.528 18.9951 22.2928 19.4657 22 19.9001C21.4954 20.4234 21.0889 21.0331 20.8 21.7001C20.7262 22.0282 20.6926 22.364 20.7 22.7001C20.7086 23.0024 20.7421 23.3034 20.8 23.6001C20.4017 23.6535 19.9982 23.6535 19.6 23.6001C19.1454 23.3653 18.7905 22.9749 18.6 22.5001C18.5692 22.4331 18.5199 22.3763 18.4579 22.3365C18.3958 22.2967 18.3237 22.2755 18.25 22.2755C18.1762 22.2755 18.1041 22.2967 18.042 22.3365C17.98 22.3763 17.9307 22.4331 17.9 22.5001C17.7 22.9001 17.2 23.6001 16.8 23.6001C16.1 23.7001 14.7 23.6001 13.7 23.6001C13.7 23.6001 13.9 22.6001 13.5 22.2001L12.4 21.1001L11.3 20.4001Z" stroke="black" stroke-width="0.75" stroke-linecap="round" stroke-linejoin="round"/>
</g>
<mask id="mask2_86_498" style="mask-type:luminance" maskUnits="userSpaceOnUse" x="0" y="0" width="32" height="32">
<path d="M32 0H0V32H32V0Z" fill="white"/>
</mask>
<g mask="url(#mask2_86_498)">
<path d="M19.6001 20.6998V17.2998" stroke="black" stroke-width="0.75" stroke-linecap="round"/>
</g>
<mask id="mask3_86_498" style="mask-type:luminance" maskUnits="userSpaceOnUse" x="0" y="0" width="32" height="32">
<path d="M32 0H0V32H32V0Z" fill="white"/>
</mask>
<g mask="url(#mask3_86_498)">
<path d="M17.6 20.6998L17.5 17.2998" stroke="black" stroke-width="0.75" stroke-linecap="round"/>
</g>
<mask id="mask4_86_498" style="mask-type:luminance" maskUnits="userSpaceOnUse" x="0" y="0" width="32" height="32">
<path d="M32 0H0V32H32V0Z" fill="white"/>
</mask>
<g mask="url(#mask4_86_498)">
<path d="M15.6001 17.2998V20.6998" stroke="black" stroke-width="0.75" stroke-linecap="round"/>
</g>
</g>
<defs>
<clipPath id="clip0_86_498">
<rect width="32" height="32" fill="white"/>
</clipPath>
</defs>
</svg>
