<svg width="22" height="22" viewBox="0 0 22 22" fill="none" xmlns="http://www.w3.org/2000/svg">
<path d="M4.92446 21.9995H0.363393V7.31156H4.92446V21.9995ZM2.64147 5.30799C1.18299 5.30799 0 4.09996 0 2.64147C1.04392e-08 1.94091 0.278297 1.26904 0.77367 0.77367C1.26904 0.278297 1.94091 0 2.64147 0C3.34204 0 4.0139 0.278297 4.50928 0.77367C5.00465 1.26904 5.28295 1.94091 5.28295 2.64147C5.28295 4.09996 4.09946 5.30799 2.64147 5.30799ZM17.4438 21.9995V14.8495C17.4438 13.1455 17.4095 10.9602 15.0725 10.9602C12.7011 10.9602 12.3377 12.8116 12.3377 14.7267V21.9995H7.78152V7.31156H12.156V9.31513H12.2198C12.8288 8.16112 14.3162 6.94326 16.5354 6.94326C21.1514 6.94326 22 9.98299 22 13.9312V21.9995H17.4438Z" fill="white"/>
</svg>
